<mxfile host="app.diagrams.net" agent="Mozilla/5.0 (Windows NT 10.0; Win64; x64) AppleWebKit/537.36 (KHTML, like Gecko) Chrome/134.0.0.0 Safari/537.36" version="26.1.3" pages="2">
  <diagram name="Página-1" id="fWykJYFprYjOwQOhX2l3">
    <mxGraphModel dx="2819" dy="868" grid="1" gridSize="10" guides="1" tooltips="1" connect="1" arrows="1" fold="1" page="1" pageScale="1" pageWidth="850" pageHeight="1100" math="0" shadow="0">
      <root>
        <mxCell id="0" />
        <mxCell id="1" parent="0" />
        <mxCell id="iPP2Hs-YZi_9mnaAh8p8-1" value="" style="rounded=1;whiteSpace=wrap;html=1;" vertex="1" parent="1">
          <mxGeometry x="-190" y="240" width="1020" height="580" as="geometry" />
        </mxCell>
        <mxCell id="iPP2Hs-YZi_9mnaAh8p8-2" value="" style="rounded=0;whiteSpace=wrap;html=1;" vertex="1" parent="1">
          <mxGeometry x="20" y="350" width="700" height="390" as="geometry" />
        </mxCell>
        <mxCell id="iPP2Hs-YZi_9mnaAh8p8-3" value="" style="rounded=0;whiteSpace=wrap;html=1;shadow=0;fillColor=#dae8fc;strokeColor=#6c8ebf;" vertex="1" parent="1">
          <mxGeometry x="150" y="430" width="150" height="130" as="geometry" />
        </mxCell>
        <mxCell id="iPP2Hs-YZi_9mnaAh8p8-4" value="Azure Container Registry" style="image;aspect=fixed;html=1;points=[];align=center;fontSize=12;image=img/lib/azure2/containers/Container_Registries.svg;" vertex="1" parent="1">
          <mxGeometry x="535" y="380" width="78" height="69.97" as="geometry" />
        </mxCell>
        <mxCell id="iPP2Hs-YZi_9mnaAh8p8-5" style="edgeStyle=orthogonalEdgeStyle;rounded=0;orthogonalLoop=1;jettySize=auto;html=1;exitX=1;exitY=0.5;exitDx=0;exitDy=0;exitPerimeter=0;" edge="1" parent="1" source="iPP2Hs-YZi_9mnaAh8p8-7" target="iPP2Hs-YZi_9mnaAh8p8-9">
          <mxGeometry relative="1" as="geometry" />
        </mxCell>
        <mxCell id="iPP2Hs-YZi_9mnaAh8p8-6" style="edgeStyle=orthogonalEdgeStyle;rounded=0;orthogonalLoop=1;jettySize=auto;html=1;exitX=0.5;exitY=1;exitDx=0;exitDy=0;exitPerimeter=0;" edge="1" parent="1" source="iPP2Hs-YZi_9mnaAh8p8-7" target="iPP2Hs-YZi_9mnaAh8p8-10">
          <mxGeometry relative="1" as="geometry">
            <Array as="points">
              <mxPoint x="225" y="670" />
            </Array>
          </mxGeometry>
        </mxCell>
        <mxCell id="iPP2Hs-YZi_9mnaAh8p8-7" value="webapp" style="verticalLabelPosition=bottom;html=1;verticalAlign=top;align=center;strokeColor=none;fillColor=#00BEF2;shape=mxgraph.azure.azure_website;pointerEvents=1;" vertex="1" parent="1">
          <mxGeometry x="200" y="470" width="50" height="50" as="geometry" />
        </mxCell>
        <mxCell id="iPP2Hs-YZi_9mnaAh8p8-8" value="AppService Plan" style="image;aspect=fixed;html=1;points=[];align=center;fontSize=12;image=img/lib/azure2/app_services/App_Service_Plans.svg;" vertex="1" parent="1">
          <mxGeometry x="130" y="410" width="50" height="50" as="geometry" />
        </mxCell>
        <mxCell id="iPP2Hs-YZi_9mnaAh8p8-9" value="CosmosDB" style="image;aspect=fixed;html=1;points=[];align=center;fontSize=12;image=img/lib/azure2/databases/Azure_Cosmos_DB.svg;" vertex="1" parent="1">
          <mxGeometry x="532" y="503" width="84" height="84" as="geometry" />
        </mxCell>
        <mxCell id="iPP2Hs-YZi_9mnaAh8p8-10" value="Azure OpenAI&lt;div&gt;&lt;br&gt;&lt;/div&gt;" style="image;aspect=fixed;html=1;points=[];align=center;fontSize=12;image=img/lib/azure2/ai_machine_learning/Azure_OpenAI.svg;" vertex="1" parent="1">
          <mxGeometry x="540" y="630" width="68" height="68" as="geometry" />
        </mxCell>
        <mxCell id="iPP2Hs-YZi_9mnaAh8p8-11" style="edgeStyle=orthogonalEdgeStyle;rounded=0;orthogonalLoop=1;jettySize=auto;html=1;entryX=0.5;entryY=0;entryDx=0;entryDy=0;entryPerimeter=0;" edge="1" parent="1" source="iPP2Hs-YZi_9mnaAh8p8-4" target="iPP2Hs-YZi_9mnaAh8p8-7">
          <mxGeometry relative="1" as="geometry" />
        </mxCell>
        <mxCell id="iPP2Hs-YZi_9mnaAh8p8-12" value="usuarios" style="image;aspect=fixed;html=1;points=[];align=center;fontSize=12;image=img/lib/azure2/azure_stack/User_Subscriptions.svg;" vertex="1" parent="1">
          <mxGeometry x="-150" y="500.41" width="89.21" height="86.59" as="geometry" />
        </mxCell>
        <mxCell id="iPP2Hs-YZi_9mnaAh8p8-13" style="edgeStyle=orthogonalEdgeStyle;rounded=0;orthogonalLoop=1;jettySize=auto;html=1;entryX=-0.004;entryY=0.712;entryDx=0;entryDy=0;entryPerimeter=0;" edge="1" parent="1" source="iPP2Hs-YZi_9mnaAh8p8-12" target="iPP2Hs-YZi_9mnaAh8p8-7">
          <mxGeometry relative="1" as="geometry" />
        </mxCell>
        <mxCell id="iPP2Hs-YZi_9mnaAh8p8-14" value="" style="shape=image;verticalLabelPosition=bottom;labelBackgroundColor=default;verticalAlign=top;aspect=fixed;imageAspect=0;image=https://upload.wikimedia.org/wikipedia/commons/thumb/f/fa/Microsoft_Azure.svg/1024px-Microsoft_Azure.svg.png;" vertex="1" parent="1">
          <mxGeometry x="636" y="306" width="84" height="84" as="geometry" />
        </mxCell>
      </root>
    </mxGraphModel>
  </diagram>
  <diagram name="Copy of Página-1" id="gsDzc06kgKzQUJope5By">
    <mxGraphModel dx="2612" dy="777" grid="1" gridSize="10" guides="1" tooltips="1" connect="1" arrows="1" fold="1" page="1" pageScale="1" pageWidth="850" pageHeight="1100" math="0" shadow="0">
      <root>
        <mxCell id="itYKub7pafbQk6kYz5Nx-0" />
        <mxCell id="itYKub7pafbQk6kYz5Nx-1" parent="itYKub7pafbQk6kYz5Nx-0" />
        <mxCell id="itYKub7pafbQk6kYz5Nx-2" value="" style="rounded=1;whiteSpace=wrap;html=1;" vertex="1" parent="itYKub7pafbQk6kYz5Nx-1">
          <mxGeometry x="-380" y="280" width="1010" height="640" as="geometry" />
        </mxCell>
        <mxCell id="itYKub7pafbQk6kYz5Nx-3" value="" style="rounded=0;whiteSpace=wrap;html=1;" vertex="1" parent="itYKub7pafbQk6kYz5Nx-1">
          <mxGeometry x="-110" y="340" width="500" height="540" as="geometry" />
        </mxCell>
        <mxCell id="itYKub7pafbQk6kYz5Nx-4" value="" style="rounded=0;whiteSpace=wrap;html=1;shadow=0;fillColor=#dae8fc;strokeColor=#6c8ebf;" vertex="1" parent="itYKub7pafbQk6kYz5Nx-1">
          <mxGeometry x="-50" y="497.01" width="150" height="130" as="geometry" />
        </mxCell>
        <mxCell id="itYKub7pafbQk6kYz5Nx-5" value="Azure Container Registry" style="image;aspect=fixed;html=1;points=[];align=center;fontSize=12;image=img/lib/azure2/containers/Container_Registries.svg;" vertex="1" parent="itYKub7pafbQk6kYz5Nx-1">
          <mxGeometry x="250" y="370" width="78" height="69.97" as="geometry" />
        </mxCell>
        <mxCell id="itYKub7pafbQk6kYz5Nx-8" value="webapp" style="verticalLabelPosition=bottom;html=1;verticalAlign=top;align=center;strokeColor=none;fillColor=#00BEF2;shape=mxgraph.azure.azure_website;pointerEvents=1;" vertex="1" parent="itYKub7pafbQk6kYz5Nx-1">
          <mxGeometry y="537.01" width="50" height="50" as="geometry" />
        </mxCell>
        <mxCell id="itYKub7pafbQk6kYz5Nx-9" value="AppService Plan" style="image;aspect=fixed;html=1;points=[];align=center;fontSize=12;image=img/lib/azure2/app_services/App_Service_Plans.svg;" vertex="1" parent="itYKub7pafbQk6kYz5Nx-1">
          <mxGeometry x="-80" y="468.71000000000004" width="50" height="50" as="geometry" />
        </mxCell>
        <mxCell id="itYKub7pafbQk6kYz5Nx-10" value="CosmosDB" style="image;aspect=fixed;html=1;points=[];align=center;fontSize=12;image=img/lib/azure2/databases/Azure_Cosmos_DB.svg;" vertex="1" parent="itYKub7pafbQk6kYz5Nx-1">
          <mxGeometry x="-40" y="724.7" width="84" height="84" as="geometry" />
        </mxCell>
        <mxCell id="itYKub7pafbQk6kYz5Nx-11" value="Azure OpenAI&lt;div&gt;&lt;br&gt;&lt;/div&gt;" style="image;aspect=fixed;html=1;points=[];align=center;fontSize=12;image=img/lib/azure2/ai_machine_learning/Azure_OpenAI.svg;" vertex="1" parent="itYKub7pafbQk6kYz5Nx-1">
          <mxGeometry x="152" y="528.01" width="68" height="68" as="geometry" />
        </mxCell>
        <mxCell id="itYKub7pafbQk6kYz5Nx-13" value="usuarios" style="image;aspect=fixed;html=1;points=[];align=center;fontSize=12;image=img/lib/azure2/azure_stack/User_Subscriptions.svg;" vertex="1" parent="itYKub7pafbQk6kYz5Nx-1">
          <mxGeometry x="-210" y="518.71" width="89.21" height="86.59" as="geometry" />
        </mxCell>
        <mxCell id="itYKub7pafbQk6kYz5Nx-14" style="edgeStyle=orthogonalEdgeStyle;rounded=0;orthogonalLoop=1;jettySize=auto;html=1;entryX=0;entryY=0.5;entryDx=0;entryDy=0;entryPerimeter=0;" edge="1" parent="itYKub7pafbQk6kYz5Nx-1" source="itYKub7pafbQk6kYz5Nx-13" target="itYKub7pafbQk6kYz5Nx-8">
          <mxGeometry relative="1" as="geometry">
            <Array as="points" />
          </mxGeometry>
        </mxCell>
        <mxCell id="itYKub7pafbQk6kYz5Nx-15" value="" style="shape=image;verticalLabelPosition=bottom;labelBackgroundColor=default;verticalAlign=top;aspect=fixed;imageAspect=0;image=https://upload.wikimedia.org/wikipedia/commons/thumb/f/fa/Microsoft_Azure.svg/1024px-Microsoft_Azure.svg.png;" vertex="1" parent="itYKub7pafbQk6kYz5Nx-1">
          <mxGeometry x="350" y="300" width="84" height="84" as="geometry" />
        </mxCell>
        <mxCell id="Oz1sM2Er_4xFA4B21A6l-1" value="" style="rounded=0;whiteSpace=wrap;html=1;shadow=0;fillColor=#dae8fc;strokeColor=#6c8ebf;" vertex="1" parent="itYKub7pafbQk6kYz5Nx-1">
          <mxGeometry x="110" y="710" width="150" height="130" as="geometry" />
        </mxCell>
        <mxCell id="Oz1sM2Er_4xFA4B21A6l-2" value="AppService Plan" style="image;aspect=fixed;html=1;points=[];align=center;fontSize=12;image=img/lib/azure2/app_services/App_Service_Plans.svg;" vertex="1" parent="itYKub7pafbQk6kYz5Nx-1">
          <mxGeometry x="80" y="681.7" width="50" height="50" as="geometry" />
        </mxCell>
        <mxCell id="Oz1sM2Er_4xFA4B21A6l-3" value="webapp" style="verticalLabelPosition=bottom;html=1;verticalAlign=top;align=center;strokeColor=none;fillColor=#00BEF2;shape=mxgraph.azure.azure_website;pointerEvents=1;" vertex="1" parent="itYKub7pafbQk6kYz5Nx-1">
          <mxGeometry x="161" y="741.7" width="50" height="50" as="geometry" />
        </mxCell>
        <mxCell id="Oz1sM2Er_4xFA4B21A6l-0" value="" style="endArrow=classic;html=1;rounded=0;entryX=0.5;entryY=0;entryDx=0;entryDy=0;entryPerimeter=0;" edge="1" parent="itYKub7pafbQk6kYz5Nx-1" source="itYKub7pafbQk6kYz5Nx-11" target="Oz1sM2Er_4xFA4B21A6l-3">
          <mxGeometry width="50" height="50" relative="1" as="geometry">
            <mxPoint x="290" y="680" as="sourcePoint" />
            <mxPoint x="534" y="690" as="targetPoint" />
          </mxGeometry>
        </mxCell>
        <mxCell id="Oz1sM2Er_4xFA4B21A6l-4" value="" style="endArrow=classic;html=1;rounded=0;exitX=0;exitY=0.5;exitDx=0;exitDy=0;exitPerimeter=0;" edge="1" parent="itYKub7pafbQk6kYz5Nx-1" source="Oz1sM2Er_4xFA4B21A6l-3">
          <mxGeometry width="50" height="50" relative="1" as="geometry">
            <mxPoint x="390" y="590" as="sourcePoint" />
            <mxPoint x="43" y="767" as="targetPoint" />
          </mxGeometry>
        </mxCell>
        <mxCell id="4ZjSaz1OWxV3lAS19o6M-0" style="edgeStyle=orthogonalEdgeStyle;rounded=0;orthogonalLoop=1;jettySize=auto;html=1;entryX=-0.029;entryY=0.492;entryDx=0;entryDy=0;entryPerimeter=0;" edge="1" parent="itYKub7pafbQk6kYz5Nx-1" target="itYKub7pafbQk6kYz5Nx-11">
          <mxGeometry relative="1" as="geometry">
            <mxPoint x="50" y="561" as="sourcePoint" />
            <mxPoint x="140" y="561.48" as="targetPoint" />
            <Array as="points" />
          </mxGeometry>
        </mxCell>
        <mxCell id="4ZjSaz1OWxV3lAS19o6M-3" value="" style="endArrow=classic;html=1;rounded=0;entryX=0.5;entryY=0;entryDx=0;entryDy=0;exitX=-0.053;exitY=0.487;exitDx=0;exitDy=0;exitPerimeter=0;" edge="1" parent="itYKub7pafbQk6kYz5Nx-1" source="itYKub7pafbQk6kYz5Nx-5" target="itYKub7pafbQk6kYz5Nx-4">
          <mxGeometry width="50" height="50" relative="1" as="geometry">
            <mxPoint x="220" y="700" as="sourcePoint" />
            <mxPoint x="270" y="650" as="targetPoint" />
            <Array as="points">
              <mxPoint x="25" y="405" />
            </Array>
          </mxGeometry>
        </mxCell>
      </root>
    </mxGraphModel>
  </diagram>
</mxfile>
